<svg width="140" height="36" viewBox="0 0 140 36" fill="none" xmlns="http://www.w3.org/2000/svg">
<path d="M52.862 16.0291C52.8127 15.5921 52.6096 15.2536 52.2526 15.0135C51.8956 14.7704 51.4463 14.6488 50.9046 14.6488C50.5168 14.6488 50.1813 14.7103 49.8982 14.8335C49.6151 14.9535 49.395 15.1197 49.238 15.332C49.0842 15.5413 49.0072 15.7798 49.0072 16.0476C49.0072 16.2723 49.0595 16.4661 49.1642 16.6293C49.2719 16.7924 49.4119 16.9293 49.5843 17.0401C49.7597 17.1478 49.9474 17.2386 50.1475 17.3125C50.3475 17.3833 50.5399 17.4418 50.7246 17.4879L51.6479 17.728C51.9495 17.8018 52.2588 17.9019 52.5758 18.0281C52.8928 18.1542 53.1867 18.3204 53.4575 18.5266C53.7283 18.7328 53.9469 18.9883 54.113 19.293C54.2823 19.5977 54.367 19.9624 54.367 20.3871C54.367 20.9226 54.2285 21.3981 53.9515 21.8136C53.6776 22.229 53.279 22.5568 52.7558 22.7969C52.2357 23.0369 51.6063 23.157 50.8677 23.157C50.1598 23.157 49.5474 23.0446 49.0303 22.82C48.5133 22.5953 48.1086 22.2768 47.8162 21.8643C47.5238 21.4489 47.3622 20.9564 47.3314 20.3871H48.7626C48.7903 20.7287 48.901 21.0134 49.0949 21.2411C49.2919 21.4658 49.5427 21.6335 49.8474 21.7443C50.1552 21.852 50.4922 21.9059 50.8584 21.9059C51.2616 21.9059 51.6202 21.8428 51.9341 21.7166C52.2511 21.5874 52.5004 21.4089 52.6819 21.1811C52.8635 20.9503 52.9543 20.681 52.9543 20.3732C52.9543 20.0932 52.8743 19.8639 52.7143 19.6854C52.5573 19.5069 52.3434 19.3591 52.0726 19.2422C51.8048 19.1252 51.5017 19.0221 51.1631 18.9329L50.0459 18.6282C49.2888 18.422 48.6887 18.1188 48.2455 17.7188C47.8054 17.3187 47.5854 16.7893 47.5854 16.1307C47.5854 15.5859 47.7331 15.1104 48.0285 14.7042C48.324 14.2979 48.7241 13.9825 49.2288 13.7578C49.7336 13.5301 50.3029 13.4162 50.9369 13.4162C51.5771 13.4162 52.1418 13.5285 52.6312 13.7532C53.1236 13.9779 53.5114 14.2872 53.7945 14.6811C54.0777 15.072 54.2254 15.5213 54.2377 16.0291H52.862ZM58.0244 23.157C57.575 23.157 57.1688 23.0739 56.8056 22.9077C56.4424 22.7384 56.1547 22.4937 55.9423 22.1737C55.733 21.8536 55.6284 21.4612 55.6284 20.9964C55.6284 20.5964 55.7053 20.267 55.8592 20.0085C56.0131 19.75 56.2209 19.5453 56.4825 19.3945C56.7441 19.2437 57.0364 19.1299 57.3596 19.0529C57.6827 18.976 58.012 18.9175 58.3475 18.8775C58.7722 18.8282 59.1169 18.7882 59.3816 18.7575C59.6463 18.7236 59.8386 18.6697 59.9587 18.5959C60.0787 18.522 60.1387 18.402 60.1387 18.2358V18.2035C60.1387 17.8003 60.0248 17.4879 59.7971 17.2663C59.5724 17.0447 59.237 16.9339 58.7907 16.9339C58.326 16.9339 57.9597 17.037 57.692 17.2433C57.4273 17.4464 57.2442 17.6726 57.1426 17.9219L55.8454 17.6264C55.9993 17.1955 56.2239 16.8478 56.5194 16.5831C56.8179 16.3153 57.1611 16.1214 57.5489 16.0014C57.9366 15.8783 58.3444 15.8168 58.7722 15.8168C59.0554 15.8168 59.3554 15.8506 59.6724 15.9183C59.9925 15.983 60.2911 16.103 60.568 16.2784C60.8481 16.4538 61.0774 16.7047 61.2559 17.0309C61.4344 17.354 61.5236 17.7741 61.5236 18.2912V23H60.1756V22.0305H60.1202C60.031 22.209 59.8971 22.3845 59.7186 22.5568C59.5401 22.7292 59.3108 22.8723 59.0308 22.9862C58.7507 23.1 58.4152 23.157 58.0244 23.157ZM58.3244 22.049C58.7061 22.049 59.0323 21.9736 59.3031 21.8228C59.577 21.672 59.7848 21.475 59.9263 21.2319C60.071 20.9857 60.1433 20.7225 60.1433 20.4425V19.5284C60.0941 19.5777 59.9987 19.6238 59.8571 19.6669C59.7186 19.7069 59.5601 19.7423 59.3816 19.7731C59.2031 19.8008 59.0292 19.8269 58.8599 19.8516C58.6907 19.8731 58.5491 19.8916 58.4352 19.907C58.1675 19.9408 57.9228 19.9978 57.7012 20.0778C57.4827 20.1578 57.3073 20.2732 57.1749 20.424C57.0457 20.5717 56.981 20.7687 56.981 21.0149C56.981 21.3565 57.1072 21.6151 57.3596 21.7905C57.612 21.9628 57.9336 22.049 58.3244 22.049ZM69.1743 15.9091L66.6029 23H65.1257L62.5497 15.9091H64.0316L65.8274 21.3658H65.9012L67.6924 15.9091H69.1743ZM73.2864 23.1431C72.5878 23.1431 71.9861 22.9938 71.4814 22.6953C70.9797 22.3937 70.5919 21.9705 70.318 21.4258C70.0472 20.878 69.9118 20.2363 69.9118 19.5007C69.9118 18.7744 70.0472 18.1342 70.318 17.5803C70.5919 17.0263 70.9736 16.5939 71.4629 16.283C71.9553 15.9722 72.5309 15.8168 73.1895 15.8168C73.5896 15.8168 73.9774 15.8829 74.3528 16.0153C74.7283 16.1476 75.0653 16.3554 75.3638 16.6385C75.6624 16.9216 75.8978 17.2894 76.0702 17.7418C76.2425 18.1912 76.3287 18.7375 76.3287 19.3807V19.87H70.692V18.8359H74.9761C74.9761 18.4728 74.9022 18.1512 74.7545 17.8711C74.6067 17.5879 74.399 17.3648 74.1312 17.2017C73.8666 17.0386 73.5557 16.957 73.1987 16.957C72.8109 16.957 72.4724 17.0524 72.1831 17.2433C71.8969 17.431 71.6753 17.6772 71.5183 17.9819C71.3644 18.2835 71.2875 18.6113 71.2875 18.9652V19.7731C71.2875 20.247 71.3706 20.6502 71.5368 20.9826C71.7061 21.315 71.9415 21.5689 72.2431 21.7443C72.5447 21.9167 72.8971 22.0028 73.3003 22.0028C73.5619 22.0028 73.8004 21.9659 74.0158 21.892C74.2313 21.8151 74.4175 21.7012 74.5744 21.5504C74.7314 21.3996 74.8514 21.2134 74.9345 20.9918L76.241 21.2273C76.1363 21.612 75.9486 21.949 75.6778 22.2383C75.41 22.5245 75.073 22.7476 74.6668 22.9077C74.2636 23.0646 73.8035 23.1431 73.2864 23.1431ZM82.2101 23H80.6959L84.0982 13.5455H85.7463L89.1487 23H87.6344L84.9615 15.2628H84.8876L82.2101 23ZM82.464 19.2976H87.3759V20.4979H82.464V19.2976ZM90.4032 23V15.9091H91.7373V17.0355H91.8112C91.9405 16.6539 92.1682 16.3538 92.4944 16.1353C92.8238 15.9137 93.1961 15.8029 93.6116 15.8029C93.6978 15.8029 93.7994 15.806 93.9163 15.8121C94.0363 15.8183 94.1302 15.826 94.1979 15.8352V17.1555C94.1425 17.1402 94.044 17.1232 93.9025 17.1048C93.7609 17.0832 93.6193 17.0724 93.4778 17.0724C93.1515 17.0724 92.8607 17.1417 92.6052 17.2802C92.3529 17.4156 92.1528 17.6049 92.0051 17.848C91.8574 18.0881 91.7835 18.362 91.7835 18.6697V23H90.4032ZM99.1214 15.9091V17.017H95.2482V15.9091H99.1214ZM96.2869 14.2102H97.6672V20.918C97.6672 21.1857 97.7072 21.3873 97.7872 21.5227C97.8673 21.6551 97.9704 21.7459 98.0965 21.7951C98.2258 21.8413 98.3658 21.8643 98.5166 21.8643C98.6274 21.8643 98.7244 21.8567 98.8075 21.8413C98.8906 21.8259 98.9552 21.8136 99.0014 21.8043L99.2507 22.9446C99.1706 22.9754 99.0568 23.0062 98.909 23.0369C98.7613 23.0708 98.5767 23.0893 98.3551 23.0923C97.9919 23.0985 97.6534 23.0339 97.3394 22.8984C97.0255 22.763 96.7716 22.5537 96.5777 22.2706C96.3838 21.9875 96.2869 21.632 96.2869 21.2042V14.2102ZM100.648 23V15.9091H102.029V23H100.648ZM101.345 14.815C101.105 14.815 100.899 14.735 100.727 14.5749C100.558 14.4118 100.473 14.2179 100.473 13.9933C100.473 13.7655 100.558 13.5716 100.727 13.4116C100.899 13.2485 101.105 13.1669 101.345 13.1669C101.585 13.1669 101.79 13.2485 101.959 13.4116C102.132 13.5716 102.218 13.7655 102.218 13.9933C102.218 14.2179 102.132 14.4118 101.959 14.5749C101.79 14.735 101.585 14.815 101.345 14.815ZM106.872 23.1431C106.186 23.1431 105.595 22.9877 105.1 22.6768C104.607 22.3629 104.229 21.9305 103.964 21.3796C103.699 20.8287 103.567 20.1978 103.567 19.4869C103.567 18.7667 103.702 18.1312 103.973 17.5803C104.244 17.0263 104.626 16.5939 105.118 16.283C105.611 15.9722 106.191 15.8168 106.859 15.8168C107.397 15.8168 107.877 15.9168 108.299 16.1168C108.721 16.3138 109.061 16.5908 109.319 16.9478C109.581 17.3048 109.736 17.7218 109.785 18.1989H108.442C108.368 17.8665 108.199 17.5803 107.934 17.3402C107.673 17.1001 107.322 16.9801 106.882 16.9801C106.497 16.9801 106.16 17.0817 105.871 17.2848C105.584 17.4848 105.361 17.7711 105.201 18.1435C105.041 18.5128 104.961 18.9498 104.961 19.4545C104.961 19.9716 105.04 20.4179 105.197 20.7933C105.354 21.1688 105.575 21.4596 105.861 21.6658C106.151 21.872 106.491 21.9751 106.882 21.9751C107.143 21.9751 107.38 21.9274 107.593 21.832C107.808 21.7335 107.988 21.5935 108.133 21.4119C108.28 21.2304 108.384 21.0118 108.442 20.7564H109.785C109.736 21.215 109.587 21.6243 109.338 21.9844C109.088 22.3445 108.754 22.6276 108.336 22.8338C107.92 23.04 107.433 23.1431 106.872 23.1431ZM112.642 13.5455V23H111.262V13.5455H112.642ZM117.555 23.1431C116.856 23.1431 116.255 22.9938 115.75 22.6953C115.248 22.3937 114.861 21.9705 114.587 21.4258C114.316 20.878 114.18 20.2363 114.18 19.5007C114.18 18.7744 114.316 18.1342 114.587 17.5803C114.861 17.0263 115.242 16.5939 115.731 16.283C116.224 15.9722 116.799 15.8168 117.458 15.8168C117.858 15.8168 118.246 15.8829 118.621 16.0153C118.997 16.1476 119.334 16.3554 119.632 16.6385C119.931 16.9216 120.166 17.2894 120.339 17.7418C120.511 18.1912 120.597 18.7375 120.597 19.3807V19.87H114.961V18.8359H119.245C119.245 18.4728 119.171 18.1512 119.023 17.8711C118.875 17.5879 118.668 17.3648 118.4 17.2017C118.135 17.0386 117.824 16.957 117.467 16.957C117.079 16.957 116.741 17.0524 116.452 17.2433C116.165 17.431 115.944 17.6772 115.787 17.9819C115.633 18.2835 115.556 18.6113 115.556 18.9652V19.7731C115.556 20.247 115.639 20.6502 115.805 20.9826C115.975 21.315 116.21 21.5689 116.512 21.7443C116.813 21.9167 117.166 22.0028 117.569 22.0028C117.83 22.0028 118.069 21.9659 118.284 21.892C118.5 21.8151 118.686 21.7012 118.843 21.5504C119 21.3996 119.12 21.2134 119.203 20.9918L120.51 21.2273C120.405 21.612 120.217 21.949 119.946 22.2383C119.679 22.5245 119.342 22.7476 118.935 22.9077C118.532 23.0646 118.072 23.1431 117.555 23.1431Z" fill="#666666"/>
<rect x="0.5" y="0.5" width="139" height="33" rx="16" stroke="#666666"/>
<path d="M23.1279 8.15H34.0222C35.4029 8.15 36.5222 9.26929 36.5222 10.65V23.0775C36.5222 24.3969 35.638 25.2419 34.5756 25.4688C33.51 25.6963 32.3222 25.2881 31.7366 24.0948C30.4554 21.4841 26.6948 21.4841 25.4135 24.0948C24.8279 25.2881 23.6401 25.6963 22.5746 25.4688C21.5121 25.2419 20.6279 24.3969 20.6279 23.0775L20.6279 10.65C20.6279 9.26929 21.7472 8.15 23.1279 8.15Z" stroke="#666666"/>
<line x1="24.8889" y1="15.8" x2="32.5111" y2="15.8" stroke="#666666"/>
<path d="M28.742 11.85L28.742 19.2" stroke="#666666"/>
</svg>
