<svg width="140" height="35" viewBox="0 0 140 35" fill="none" xmlns="http://www.w3.org/2000/svg">
<rect x="0.5" y="0.5" width="139" height="31" rx="15.5" fill="#666666" stroke="#666666"/>
<path d="M47.1186 11.5455H48.5497V17.7638C48.5497 18.4255 48.3943 19.0118 48.0835 19.5227C47.7726 20.0305 47.3356 20.4306 46.7724 20.723C46.2092 21.0123 45.549 21.157 44.7919 21.157C44.0379 21.157 43.3793 21.0123 42.8161 20.723C42.2528 20.4306 41.8158 20.0305 41.505 19.5227C41.1941 19.0118 41.0387 18.4255 41.0387 17.7638V11.5455H42.4652V17.6484C42.4652 18.0762 42.5591 18.4563 42.7468 18.7887C42.9376 19.1211 43.2069 19.3827 43.5547 19.5735C43.9025 19.7612 44.3149 19.8551 44.7919 19.8551C45.272 19.8551 45.686 19.7612 46.0337 19.5735C46.3846 19.3827 46.6523 19.1211 46.837 18.7887C47.0247 18.4563 47.1186 18.0762 47.1186 17.6484V11.5455ZM51.8932 16.7898V21H50.5129V13.9091H51.8378V15.0632H51.9255C52.0886 14.6877 52.3441 14.3861 52.6919 14.1584C53.0427 13.9306 53.4843 13.8168 54.0168 13.8168C54.5 13.8168 54.9231 13.9183 55.2863 14.1214C55.6495 14.3215 55.9311 14.62 56.1311 15.017C56.3312 15.4141 56.4312 15.9049 56.4312 16.4897V21H55.0509V16.6559C55.0509 16.1419 54.917 15.7403 54.6492 15.451C54.3815 15.1586 54.0137 15.0124 53.5459 15.0124C53.2258 15.0124 52.9411 15.0817 52.6919 15.2202C52.4456 15.3587 52.2502 15.5618 52.1056 15.8295C51.964 16.0942 51.8932 16.4143 51.8932 16.7898ZM63.596 15.6403L62.3449 15.8619C62.2926 15.7018 62.2095 15.5495 62.0956 15.4048C61.9848 15.2602 61.834 15.1417 61.6432 15.0494C61.4524 14.957 61.2139 14.9109 60.9276 14.9109C60.5368 14.9109 60.2106 14.9986 59.949 15.174C59.6874 15.3464 59.5566 15.5695 59.5566 15.8434C59.5566 16.0804 59.6443 16.2712 59.8197 16.4158C59.9951 16.5605 60.2783 16.679 60.6691 16.7713L61.7955 17.0298C62.448 17.1806 62.9343 17.413 63.2544 17.7269C63.5744 18.0408 63.7345 18.4486 63.7345 18.9503C63.7345 19.375 63.6114 19.7536 63.3651 20.0859C63.122 20.4152 62.7819 20.6738 62.3449 20.8615C61.911 21.0492 61.4078 21.1431 60.8353 21.1431C60.0413 21.1431 59.3934 20.9738 58.8918 20.6353C58.3901 20.2937 58.0824 19.8089 57.9685 19.1811L59.3026 18.978C59.3857 19.3258 59.5566 19.5889 59.8151 19.7674C60.0736 19.9428 60.4106 20.0305 60.8261 20.0305C61.2785 20.0305 61.6401 19.9367 61.911 19.7489C62.1818 19.5581 62.3172 19.3258 62.3172 19.0518C62.3172 18.8303 62.2341 18.6441 62.0679 18.4933C61.9048 18.3424 61.654 18.2286 61.3154 18.1516L60.1151 17.8885C59.4535 17.7377 58.9641 17.4976 58.6471 17.1683C58.3332 16.839 58.1762 16.422 58.1762 15.9173C58.1762 15.4987 58.2932 15.1325 58.5271 14.8185C58.761 14.5046 59.0841 14.2599 59.4965 14.0845C59.9089 13.906 60.3814 13.8168 60.9138 13.8168C61.6801 13.8168 62.2834 13.983 62.7235 14.3153C63.1636 14.6446 63.4544 15.0863 63.596 15.6403ZM67.3157 21.157C66.8664 21.157 66.4601 21.0739 66.0969 20.9077C65.7338 20.7384 65.446 20.4937 65.2337 20.1737C65.0244 19.8536 64.9197 19.4612 64.9197 18.9964C64.9197 18.5964 64.9967 18.267 65.1506 18.0085C65.3045 17.75 65.5122 17.5453 65.7738 17.3945C66.0354 17.2437 66.3278 17.1299 66.6509 17.0529C66.9741 16.976 67.3034 16.9175 67.6388 16.8775C68.0636 16.8282 68.4083 16.7882 68.6729 16.7575C68.9376 16.7236 69.13 16.6697 69.25 16.5959C69.37 16.522 69.43 16.402 69.43 16.2358V16.2035C69.43 15.8003 69.3162 15.4879 69.0884 15.2663C68.8638 15.0447 68.5283 14.9339 68.082 14.9339C67.6173 14.9339 67.2511 15.037 66.9833 15.2433C66.7186 15.4464 66.5355 15.6726 66.4339 15.9219L65.1367 15.6264C65.2906 15.1955 65.5153 14.8478 65.8107 14.5831C66.1093 14.3153 66.4524 14.1214 66.8402 14.0014C67.228 13.8783 67.6358 13.8168 68.0636 13.8168C68.3467 13.8168 68.6468 13.8506 68.9638 13.9183C69.2839 13.983 69.5824 14.103 69.8594 14.2784C70.1394 14.4538 70.3687 14.7047 70.5472 15.0309C70.7257 15.354 70.815 15.7741 70.815 16.2912V21H69.467V20.0305H69.4116C69.3223 20.209 69.1884 20.3845 69.0099 20.5568C68.8314 20.7292 68.6022 20.8723 68.3221 20.9862C68.042 21.1 67.7066 21.157 67.3157 21.157ZM67.6158 20.049C67.9974 20.049 68.3236 19.9736 68.5945 19.8228C68.8684 19.672 69.0761 19.475 69.2177 19.2319C69.3623 18.9857 69.4347 18.7225 69.4347 18.4425V17.5284C69.3854 17.5777 69.29 17.6238 69.1484 17.6669C69.0099 17.7069 68.8514 17.7423 68.6729 17.7731C68.4944 17.8008 68.3205 17.8269 68.1513 17.8516C67.982 17.8731 67.8404 17.8916 67.7266 17.907C67.4588 17.9408 67.2141 17.9978 66.9925 18.0778C66.774 18.1578 66.5986 18.2732 66.4663 18.424C66.337 18.5717 66.2724 18.7687 66.2724 19.0149C66.2724 19.3565 66.3986 19.6151 66.6509 19.7905C66.9033 19.9628 67.2249 20.049 67.6158 20.049ZM78.4656 13.9091L75.8943 21H74.417L71.841 13.9091H73.3229L75.1187 19.3658H75.1926L76.9838 13.9091H78.4656ZM82.5778 21.1431C81.8791 21.1431 81.2775 20.9938 80.7727 20.6953C80.2711 20.3937 79.8833 19.9705 79.6094 19.4258C79.3385 18.878 79.2031 18.2363 79.2031 17.5007C79.2031 16.7744 79.3385 16.1342 79.6094 15.5803C79.8833 15.0263 80.2649 14.5939 80.7543 14.283C81.2467 13.9722 81.8222 13.8168 82.4808 13.8168C82.8809 13.8168 83.2687 13.8829 83.6442 14.0153C84.0196 14.1476 84.3567 14.3554 84.6552 14.6385C84.9537 14.9216 85.1892 15.2894 85.3615 15.7418C85.5339 16.1912 85.62 16.7375 85.62 17.3807V17.87H79.9833V16.8359H84.2674C84.2674 16.4728 84.1935 16.1512 84.0458 15.8711C83.8981 15.5879 83.6903 15.3648 83.4226 15.2017C83.1579 15.0386 82.8471 14.957 82.4901 14.957C82.1023 14.957 81.7637 15.0524 81.4744 15.2433C81.1882 15.431 80.9666 15.6772 80.8097 15.9819C80.6558 16.2835 80.5788 16.6113 80.5788 16.9652V17.7731C80.5788 18.247 80.6619 18.6502 80.8281 18.9826C80.9974 19.315 81.2328 19.5689 81.5344 19.7443C81.8361 19.9167 82.1884 20.0028 82.5916 20.0028C82.8532 20.0028 83.0917 19.9659 83.3072 19.892C83.5226 19.8151 83.7088 19.7012 83.8658 19.5504C84.0227 19.3996 84.1428 19.2134 84.2259 18.9918L85.5323 19.2273C85.4277 19.612 85.2399 19.949 84.9691 20.2383C84.7013 20.5245 84.3643 20.7476 83.9581 20.9077C83.5549 21.0646 83.0948 21.1431 82.5778 21.1431ZM91.5014 21H89.9872L93.3896 11.5455H95.0376L98.44 21H96.9258L94.2528 13.2628H94.179L91.5014 21ZM91.7553 17.2976H96.6673V18.4979H91.7553V17.2976ZM99.6945 21V13.9091H101.029V15.0355H101.103C101.232 14.6539 101.46 14.3538 101.786 14.1353C102.115 13.9137 102.487 13.8029 102.903 13.8029C102.989 13.8029 103.091 13.806 103.208 13.8121C103.328 13.8183 103.422 13.826 103.489 13.8352V15.1555C103.434 15.1402 103.335 15.1232 103.194 15.1048C103.052 15.0832 102.911 15.0724 102.769 15.0724C102.443 15.0724 102.152 15.1417 101.897 15.2802C101.644 15.4156 101.444 15.6049 101.296 15.848C101.149 16.0881 101.075 16.362 101.075 16.6697V21H99.6945ZM108.413 13.9091V15.017H104.54V13.9091H108.413ZM105.578 12.2102H106.959V18.918C106.959 19.1857 106.999 19.3873 107.079 19.5227C107.159 19.6551 107.262 19.7459 107.388 19.7951C107.517 19.8413 107.657 19.8643 107.808 19.8643C107.919 19.8643 108.016 19.8567 108.099 19.8413C108.182 19.8259 108.247 19.8136 108.293 19.8043L108.542 20.9446C108.462 20.9754 108.348 21.0062 108.2 21.0369C108.053 21.0708 107.868 21.0893 107.646 21.0923C107.283 21.0985 106.945 21.0339 106.631 20.8984C106.317 20.763 106.063 20.5537 105.869 20.2706C105.675 19.9875 105.578 19.632 105.578 19.2042V12.2102ZM109.94 21V13.9091H111.32V21H109.94ZM110.637 12.815C110.397 12.815 110.19 12.735 110.018 12.5749C109.849 12.4118 109.764 12.2179 109.764 11.9933C109.764 11.7655 109.849 11.5716 110.018 11.4116C110.19 11.2485 110.397 11.1669 110.637 11.1669C110.877 11.1669 111.081 11.2485 111.251 11.4116C111.423 11.5716 111.509 11.7655 111.509 11.9933C111.509 12.2179 111.423 12.4118 111.251 12.5749C111.081 12.735 110.877 12.815 110.637 12.815ZM116.164 21.1431C115.477 21.1431 114.887 20.9877 114.391 20.6768C113.899 20.3629 113.52 19.9305 113.255 19.3796C112.991 18.8287 112.858 18.1978 112.858 17.4869C112.858 16.7667 112.994 16.1312 113.265 15.5803C113.535 15.0263 113.917 14.5939 114.41 14.283C114.902 13.9722 115.482 13.8168 116.15 13.8168C116.689 13.8168 117.169 13.9168 117.59 14.1168C118.012 14.3138 118.352 14.5908 118.611 14.9478C118.872 15.3048 119.028 15.7218 119.077 16.1989H117.733C117.66 15.8665 117.49 15.5803 117.226 15.3402C116.964 15.1001 116.613 14.9801 116.173 14.9801C115.788 14.9801 115.451 15.0817 115.162 15.2848C114.876 15.4848 114.653 15.7711 114.493 16.1435C114.333 16.5128 114.253 16.9498 114.253 17.4545C114.253 17.9716 114.331 18.4179 114.488 18.7933C114.645 19.1688 114.867 19.4596 115.153 19.6658C115.442 19.872 115.782 19.9751 116.173 19.9751C116.435 19.9751 116.672 19.9274 116.884 19.832C117.099 19.7335 117.279 19.5935 117.424 19.4119C117.572 19.2304 117.675 19.0118 117.733 18.7564H119.077C119.028 19.215 118.878 19.6243 118.629 19.9844C118.38 20.3445 118.046 20.6276 117.627 20.8338C117.212 21.04 116.724 21.1431 116.164 21.1431ZM121.933 11.5455V21H120.553V11.5455H121.933ZM126.846 21.1431C126.148 21.1431 125.546 20.9938 125.041 20.6953C124.54 20.3937 124.152 19.9705 123.878 19.4258C123.607 18.878 123.472 18.2363 123.472 17.5007C123.472 16.7744 123.607 16.1342 123.878 15.5803C124.152 15.0263 124.533 14.5939 125.023 14.283C125.515 13.9722 126.091 13.8168 126.749 13.8168C127.149 13.8168 127.537 13.8829 127.913 14.0153C128.288 14.1476 128.625 14.3554 128.924 14.6385C129.222 14.9216 129.458 15.2894 129.63 15.7418C129.802 16.1912 129.889 16.7375 129.889 17.3807V17.87H124.252V16.8359H128.536C128.536 16.4728 128.462 16.1512 128.314 15.8711C128.167 15.5879 127.959 15.3648 127.691 15.2017C127.426 15.0386 127.116 14.957 126.759 14.957C126.371 14.957 126.032 15.0524 125.743 15.2433C125.457 15.431 125.235 15.6772 125.078 15.9819C124.924 16.2835 124.847 16.6113 124.847 16.9652V17.7731C124.847 18.247 124.93 18.6502 125.097 18.9826C125.266 19.315 125.501 19.5689 125.803 19.7443C126.105 19.9167 126.457 20.0028 126.86 20.0028C127.122 20.0028 127.36 19.9659 127.576 19.892C127.791 19.8151 127.977 19.7012 128.134 19.5504C128.291 19.3996 128.411 19.2134 128.494 18.9918L129.801 19.2273C129.696 19.612 129.508 19.949 129.238 20.2383C128.97 20.5245 128.633 20.7476 128.227 20.9077C127.823 21.0646 127.363 21.1431 126.846 21.1431Z" fill="white"/>
<path d="M21 6.5H32C33.3807 6.5 34.5 7.61929 34.5 9V21.8852C34.5 24.5421 30.9037 25.3648 29.7486 22.9721L29.6519 22.7718C28.3785 20.1339 24.6215 20.1339 23.3481 22.7718L23.2514 22.9721C22.0963 25.3648 18.5 24.5421 18.5 21.8852L18.5 9C18.5 7.61929 19.6193 6.5 21 6.5Z" fill="#666666" stroke="white"/>
<line x1="24.0251" y1="12.0251" x2="28.9749" y2="16.9749" stroke="white"/>
<line x1="28.9749" y1="12.0251" x2="24.0251" y2="16.9749" stroke="white"/>
</svg>
